<?xml version="1.0" standalone="no"?>
<!DOCTYPE svg PUBLIC "-//W3C//DTD SVG 20010904//EN"
 "http://www.w3.org/TR/2001/REC-SVG-20010904/DTD/svg10.dtd">
<svg version="1.0" xmlns="http://www.w3.org/2000/svg"
 width="300.000000pt" height="300.000000pt" viewBox="0 0 300.000000 300.000000"
 preserveAspectRatio="xMidYMid meet">
<metadata>
Created by potrace 1.11, written by Peter Selinger 2001-2013
</metadata>
<g transform="translate(0.000000,300.000000) scale(0.100000,-0.100000)"
fill="#000000" stroke="none">
<path d="M1405 2983 c-308 -25 -580 -126 -807 -300 -162 -123 -372 -358 -351
-392 5 -9 106 -182 223 -386 117 -203 242 -419 277 -479 35 -60 62 -110 60
-113 -2 -2 -37 54 -78 124 -105 183 -339 588 -421 726 -80 137 -68 138 -142
-11 -47 -93 -97 -232 -115 -317 -21 -102 -48 -315 -43 -345 2 -8 5 -46 7 -85
2 -38 7 -90 10 -115 4 -25 9 -63 11 -85 2 -22 7 -47 11 -55 3 -8 8 -24 10 -35
2 -11 6 -27 10 -35 3 -8 7 -19 7 -25 6 -52 104 -266 168 -366 243 -379 658
-631 1114 -677 l71 -8 137 236 c75 129 171 296 214 370 l78 135 468 3 c426 2
468 1 462 -14 -15 -40 -119 -176 -196 -258 -98 -103 -108 -109 205 122 l200
148 3 457 2 457 -1082 -1 -1083 -1 3 28 c1 16 23 72 49 124 81 165 234 294
423 356 50 17 115 18 780 22 398 2 726 5 729 7 7 8 -68 125 -135 210 -62 81
-180 199 -266 269 -80 64 -254 163 -363 205 -134 53 -281 87 -425 101 -112 10
-142 10 -225 3z m241 -1543 c125 -61 154 -290 51 -407 -48 -54 -79 -63 -222
-63 l-125 0 0 245 0 245 127 0 c107 0 133 -3 169 -20z m564 -10 l0 -30 -150 0
-150 0 0 -75 0 -74 138 -3 137 -3 0 -25 0 -25 -137 -3 -138 -3 0 -79 0 -80
150 0 150 0 0 -30 0 -30 -185 0 -185 0 0 245 0 245 185 0 185 0 0 -30z m188
-147 c33 -98 63 -189 67 -202 4 -12 11 -19 15 -15 4 5 36 96 71 202 l64 192
38 0 c27 0 37 -4 35 -13 -2 -7 -41 -118 -88 -246 l-85 -232 -39 3 -39 3 -54
150 c-30 83 -70 192 -88 243 l-34 92 38 0 38 0 61 -177z"/>
<path d="M1420 1215 l0 -185 84 0 c106 0 143 21 168 95 34 98 11 211 -51 252
-29 19 -47 23 -117 23 l-84 0 0 -185z"/>
<path d="M1483 2053 c9 -2 25 -2 35 0 9 3 1 5 -18 5 -19 0 -27 -2 -17 -5z"/>
<path d="M1393 2043 c9 -2 23 -2 30 0 6 3 -1 5 -18 5 -16 0 -22 -2 -12 -5z"/>
<path d="M1573 2043 c9 -2 25 -2 35 0 9 3 1 5 -18 5 -19 0 -27 -2 -17 -5z"/>
<path d="M1255 2000 c-3 -6 1 -7 9 -4 18 7 21 14 7 14 -6 0 -13 -4 -16 -10z"/>
<path d="M1720 2006 c0 -2 7 -7 16 -10 8 -3 12 -2 9 4 -6 10 -25 14 -25 6z"/>
<path d="M1800 1963 c32 -22 141 -130 163 -163 16 -22 16 -21 0 8 -21 39 -127
143 -163 161 l-25 12 25 -18z"/>
<path d="M1130 1914 c-33 -31 -70 -71 -81 -88 -12 -17 -3 -10 20 16 23 26 63
65 89 88 26 22 44 40 40 40 -4 0 -34 -25 -68 -56z"/>
<path d="M995 1739 c-4 -6 -5 -12 -2 -15 2 -3 7 2 10 11 7 17 1 20 -8 4z"/>
<path d="M1996 1737 c3 -10 9 -15 12 -12 3 3 0 11 -7 18 -10 9 -11 8 -5 -6z"/>
</g>
</svg>
